<svg width="22" height="23" viewBox="0 0 22 23" fill="none" xmlns="http://www.w3.org/2000/svg">
<path d="M18.3737 18.9816C16.3689 20.9864 13.9813 22.0566 11.2107 22.1924C8.43956 22.3287 5.97284 21.5305 3.81057 19.7979C3.55281 19.5974 3.4205 19.3287 3.41363 18.9919C3.40618 18.6557 3.52417 18.3659 3.76761 18.1225C3.99672 17.8933 4.28312 17.7713 4.62679 17.7564C4.97046 17.7427 5.27834 17.8432 5.55041 18.058C7.22582 19.3325 9.11258 19.9018 11.2107 19.7661C13.3083 19.6297 15.1231 18.7955 16.6553 17.2633C18.3307 15.5879 19.1682 13.5831 19.1676 11.249C19.1682 8.91489 18.3307 6.91013 16.6553 5.23472C14.9799 3.55932 12.9749 2.72161 10.6402 2.72162C8.30667 2.72162 6.3022 3.55932 4.62679 5.23472L4.49791 5.3636L6.00148 5.3636C6.31652 5.3636 6.59575 5.48532 6.83919 5.72875C7.08262 5.97219 7.20434 6.25142 7.20434 6.56645C7.20434 6.91013 7.08262 7.20368 6.83919 7.44712C6.59575 7.69055 6.30936 7.80511 5.98 7.79079L1.53374 7.81227C1.3619 7.81227 1.20811 7.77991 1.07236 7.71518C0.936032 7.65103 0.810592 7.56167 0.696034 7.44712C0.581477 7.33256 0.492121 7.20712 0.427969 7.0708C0.363244 6.93504 0.330882 6.78125 0.330882 6.60942L0.330882 2.14167C0.330882 1.82663 0.452599 1.5474 0.696035 1.30397C0.939469 1.06053 1.22586 0.931653 1.55522 0.917334C1.88457 0.931653 2.17096 1.06053 2.4144 1.30397C2.65783 1.5474 2.77955 1.82663 2.77955 2.14167L2.77955 3.64524L2.90843 3.51636C3.98241 2.44238 5.19271 1.64048 6.53933 1.11065C7.88481 0.580821 9.25206 0.315618 10.6411 0.315046C12.0301 0.315619 13.3976 0.580535 14.7437 1.10979C16.0897 1.64019 17.2997 2.44238 18.3737 3.51636C19.4477 4.59034 20.2496 5.80007 20.7794 7.14554C21.3092 8.49217 21.5742 9.8597 21.5742 11.2481C21.5742 12.6377 21.3095 14.0055 20.7803 15.3516C20.2499 16.6976 19.4477 17.9077 18.3737 18.9816Z" fill="#0071FF"/>
</svg>
